<svg width="150" height="150" viewBox="0 0 150 150" fill="none" xmlns="http://www.w3.org/2000/svg">
<g id="Union">
<path fill-rule="evenodd" clip-rule="evenodd" d="M61.4242 35.3054L61.093 53.4495C58.568 53.8086 56.3113 54.5346 54.323 55.6272C52.3346 56.7199 50.6301 58.1217 49.2094 59.8326C47.7892 61.5146 46.6968 63.4775 45.9321 65.7215C45.8626 65.9229 45.7961 66.126 45.7326 66.3306H103.043C102.419 64.3625 101.517 62.5799 100.339 60.9829C99.0391 59.2223 97.4594 57.7461 95.5996 56.5543C93.7114 55.333 91.5416 54.4683 89.0904 53.9604L89.5083 35.818C93.6364 36.4434 97.5634 37.7742 101.289 39.8107C104.987 41.8466 108.267 44.5262 111.13 47.8495C113.993 51.1728 116.222 55.0925 117.819 59.6085C119.416 64.0956 120.164 69.1171 120.062 74.6732C119.918 82.5732 117.995 89.6013 114.293 95.7574C110.592 101.885 105.308 106.68 98.4426 110.145C91.5478 113.608 83.2822 115.252 73.6459 115.076C63.9807 114.9 55.7809 112.941 49.0465 109.2C42.3121 105.458 37.2076 100.444 33.7328 94.1568C30.2581 87.8697 28.592 80.8195 28.7346 73.0063C28.8276 67.9133 29.6371 63.2096 31.1632 58.8953C32.6609 54.5516 34.8152 50.712 37.6261 47.3764C40.4081 44.0403 43.8008 41.3378 47.8044 39.2687C51.7796 37.1702 56.3195 35.8491 61.4242 35.3054ZM102.812 81.6123H46.1272C46.6138 82.8992 47.2258 84.1278 47.963 85.2981C50.2141 88.8418 53.5355 91.638 57.927 93.6866C62.2902 95.7057 67.6405 96.7731 73.9779 96.8887C80.4599 97.007 85.9327 96.1227 90.3961 94.2357C94.8305 92.3483 98.2083 89.6744 100.529 86.2141C101.48 84.7783 102.241 83.2444 102.812 81.6123Z" fill="white"/>
<path fill-rule="evenodd" clip-rule="evenodd" d="M75 150C116.421 150 150 116.421 150 75C150 33.5786 116.421 0 75 0C33.5786 0 0 33.5786 0 75C0 116.421 33.5786 150 75 150ZM75 139C110.346 139 139 110.346 139 75C139 39.6538 110.346 11 75 11C39.6538 11 11 39.6538 11 75C11 110.346 39.6538 139 75 139Z" fill="white"/>
</g>
</svg>
